<?xml version="1.0" encoding="UTF-8" standalone="no"?>
<!-- Created with Inkscape (http://www.inkscape.org/) -->

<svg
   width="67mm"
   height="60mm"
   viewBox="0 0 67 59.999999"
   version="1.1"
   id="svg8"
   inkscape:version="1.3.2 (091e20e, 2023-11-25)"
   sodipodi:docname="Excel.svg"
   inkscape:export-filename="../../../../stats.png"
   inkscape:export-xdpi="336.46799"
   inkscape:export-ydpi="336.46799"
   xml:space="preserve"
   xmlns:inkscape="http://www.inkscape.org/namespaces/inkscape"
   xmlns:sodipodi="http://sodipodi.sourceforge.net/DTD/sodipodi-0.dtd"
   xmlns="http://www.w3.org/2000/svg"
   xmlns:svg="http://www.w3.org/2000/svg"
   xmlns:rdf="http://www.w3.org/1999/02/22-rdf-syntax-ns#"
   xmlns:cc="http://creativecommons.org/ns#"
   xmlns:dc="http://purl.org/dc/elements/1.1/"><defs
     id="defs2"><marker
       inkscape:stockid="Arrow1Lend"
       orient="auto"
       refY="0"
       refX="0"
       id="marker4740"
       style="overflow:visible"
       inkscape:isstock="true"><path
         id="path4738"
         d="M 0,0 5,-5 -12.5,0 5,5 Z"
         style="fill:#000000;fill-opacity:1;fill-rule:evenodd;stroke:#000000;stroke-width:1pt;stroke-opacity:1"
         transform="matrix(-0.8,0,0,-0.8,-10,0)"
         inkscape:connector-curvature="0" /></marker><marker
       inkscape:isstock="true"
       style="overflow:visible"
       id="marker4598"
       refX="0"
       refY="0"
       orient="auto"
       inkscape:stockid="Arrow1Lstart"><path
         transform="matrix(0.8,0,0,0.8,10,0)"
         style="fill:#000000;fill-opacity:1;fill-rule:evenodd;stroke:#000000;stroke-width:1pt;stroke-opacity:1"
         d="M 0,0 5,-5 -12.5,0 5,5 Z"
         id="path4596"
         inkscape:connector-curvature="0" /></marker><marker
       inkscape:isstock="true"
       style="overflow:visible"
       id="marker3996"
       refX="0"
       refY="0"
       orient="auto"
       inkscape:stockid="Arrow1Lend"><path
         transform="matrix(-0.8,0,0,-0.8,-10,0)"
         style="fill:#000000;fill-opacity:1;fill-rule:evenodd;stroke:#000000;stroke-width:1pt;stroke-opacity:1"
         d="M 0,0 5,-5 -12.5,0 5,5 Z"
         id="path3994"
         inkscape:connector-curvature="0" /></marker><marker
       inkscape:stockid="Arrow1Lend"
       orient="auto"
       refY="0"
       refX="0"
       id="marker3194"
       style="overflow:visible"
       inkscape:isstock="true"><path
         id="path3192"
         d="M 0,0 5,-5 -12.5,0 5,5 Z"
         style="fill:#000000;fill-opacity:1;fill-rule:evenodd;stroke:#000000;stroke-width:1pt;stroke-opacity:1"
         transform="matrix(-0.8,0,0,-0.8,-10,0)"
         inkscape:connector-curvature="0" /></marker><marker
       inkscape:stockid="Arrow1Lstart"
       orient="auto"
       refY="0"
       refX="0"
       id="marker3066"
       style="overflow:visible"
       inkscape:isstock="true"><path
         id="path3064"
         d="M 0,0 5,-5 -12.5,0 5,5 Z"
         style="fill:#000000;fill-opacity:1;fill-rule:evenodd;stroke:#000000;stroke-width:1pt;stroke-opacity:1"
         transform="matrix(0.8,0,0,0.8,10,0)"
         inkscape:connector-curvature="0" /></marker><marker
       inkscape:stockid="Arrow1Lend"
       orient="auto"
       refY="0"
       refX="0"
       id="Arrow1Lend"
       style="overflow:visible"
       inkscape:isstock="true"><path
         id="path847"
         d="M 0,0 5,-5 -12.5,0 5,5 Z"
         style="fill:#000000;fill-opacity:1;fill-rule:evenodd;stroke:#000000;stroke-width:1pt;stroke-opacity:1"
         transform="matrix(-0.8,0,0,-0.8,-10,0)"
         inkscape:connector-curvature="0" /></marker><marker
       inkscape:stockid="Arrow1Lstart"
       orient="auto"
       refY="0"
       refX="0"
       id="Arrow1Lstart"
       style="overflow:visible"
       inkscape:isstock="true"><path
         id="path844"
         d="M 0,0 5,-5 -12.5,0 5,5 Z"
         style="fill:#000000;fill-opacity:1;fill-rule:evenodd;stroke:#000000;stroke-width:1pt;stroke-opacity:1"
         transform="matrix(0.8,0,0,0.8,10,0)"
         inkscape:connector-curvature="0" /></marker><linearGradient
       spreadMethod="pad"
       gradientUnits="userSpaceOnUse"
       y2="593.79999"
       y1="3.6659999"
       x2="590.79999"
       x1="0.7414"
       id="gradientFill-1"
       gradientTransform="scale(1.222,0.8183)"><stop
         id="stop1123"
         stop-opacity="1"
         stop-color="rgb(203,206,208)"
         offset="0" /><stop
         id="stop1125"
         stop-opacity="1"
         stop-color="rgb(132,131,139)"
         offset="1" /></linearGradient><linearGradient
       spreadMethod="pad"
       gradientUnits="userSpaceOnUse"
       y2="553.40002"
       y1="151.3"
       x2="703.09998"
       x1="301.10001"
       id="gradientFill-2"
       gradientTransform="scale(0.9899,1.01)"><stop
         id="stop1128"
         stop-opacity="1"
         stop-color="rgb(39,109,195)"
         offset="0" /><stop
         id="stop1130"
         stop-opacity="1"
         stop-color="rgb(22,92,170)"
         offset="1" /></linearGradient><linearGradient
       gradientTransform="matrix(1.22194,0,0,0.81837,-0.906,-3)"
       spreadMethod="pad"
       gradientUnits="userSpaceOnUse"
       y2="593.78699"
       y1="3.6659999"
       x2="590.86298"
       x1="0.741"
       id="a"><stop
         stop-color="#CBCED0"
         offset="0"
         id="stop1057" /><stop
         stop-color="#84838B"
         offset="1"
         id="stop1059" /></linearGradient><linearGradient
       gradientTransform="matrix(0.98995,0,0,1.01015,-0.906,-3)"
       spreadMethod="pad"
       gradientUnits="userSpaceOnUse"
       y2="553.44202"
       y1="151.401"
       x2="703.06799"
       x1="301.026"
       id="b"><stop
         stop-color="#276DC3"
         offset="0"
         id="stop1062" /><stop
         stop-color="#165CAA"
         offset="1"
         id="stop1064" /></linearGradient></defs><sodipodi:namedview
     id="base"
     pagecolor="#ffffff"
     bordercolor="#666666"
     borderopacity="1.0"
     inkscape:pageopacity="0.0"
     inkscape:pageshadow="2"
     inkscape:zoom="0.35"
     inkscape:cx="738.57143"
     inkscape:cy="548.57143"
     inkscape:document-units="mm"
     inkscape:current-layer="layer1"
     showgrid="false"
     fit-margin-top="0"
     fit-margin-left="0"
     fit-margin-right="0"
     fit-margin-bottom="0"
     inkscape:window-width="1680"
     inkscape:window-height="1015"
     inkscape:window-x="335"
     inkscape:window-y="25"
     inkscape:window-maximized="0"
     inkscape:snap-grids="false"
     inkscape:snap-to-guides="false"
     inkscape:snap-others="false"
     inkscape:object-nodes="false"
     inkscape:snap-nodes="false"
     inkscape:snap-global="false"
     inkscape:pagecheckerboard="0"
     inkscape:showpageshadow="2"
     inkscape:deskcolor="#d1d1d1" /><metadata
     id="metadata5"><rdf:RDF><cc:Work
         rdf:about=""><dc:format>image/svg+xml</dc:format><dc:type
           rdf:resource="http://purl.org/dc/dcmitype/StillImage" /></cc:Work></rdf:RDF></metadata><g
     inkscape:label="Layer 1"
     inkscape:groupmode="layer"
     id="layer1"
     transform="translate(153.54335,-0.91980945)"><g
       id="g2421"
       transform="matrix(0.11948728,0,0,0.11948728,-257.86182,-95.761548)"
       style="stroke-width:0.853608"><path
         fill="#185c37"
         d="m 1209.5571,1053.2396 -199.9265,-35.2811 v 260.6924 c 0,11.9054 9.6513,21.5567 21.5568,21.5567 v 0 h 344.979 c 11.9055,0 21.5568,-9.6513 21.5568,-21.5567 v 0 -96.0471 z"
         id="path826"
         style="stroke-width:0.188521" /><path
         fill="#21a366"
         d="m 1209.5571,829.79241 h -178.3697 c -11.9055,0 -21.5568,9.65124 -21.5568,21.55672 0,0 0,0 0,0 V 947.3962 L 1209.5571,1065 1315.4005,1100.2811 1397.7232,1065 V 947.3962 Z"
         id="path828"
         style="stroke-width:0.188521" /><path
         fill="#107c41"
         d="m 1009.6306,947.3962 h 199.9265 V 1065 h -199.9265 z"
         id="path830"
         style="stroke-width:0.188521" /><path
         opacity="0.1"
         enable-background="new    "
         d="m 1152.7192,923.87544 h -143.0886 v 294.00946 h 143.0886 c 11.8894,-0.039 21.5181,-9.6673 21.5567,-21.5567 V 945.43216 c -0.039,-11.88935 -9.6673,-21.51807 -21.5567,-21.55672 z"
         id="path832"
         style="stroke-width:0.188521" /><path
         opacity="0.2"
         enable-background="new    "
         d="m 1140.9588,935.63582 h -131.3282 v 294.00948 h 131.3282 c 11.8894,-0.039 21.5181,-9.6674 21.5568,-21.5567 V 957.19254 c -0.039,-11.88936 -9.6674,-21.51807 -21.5568,-21.55672 z"
         id="path834"
         style="stroke-width:0.188521" /><path
         opacity="0.2"
         enable-background="new    "
         d="m 1140.9588,935.63582 h -131.3282 v 270.48868 h 131.3282 c 11.8894,-0.039 21.5181,-9.6673 21.5568,-21.5567 V 957.19254 c -0.039,-11.88936 -9.6674,-21.51807 -21.5568,-21.55672 z"
         id="path836"
         style="stroke-width:0.188521" /><path
         opacity="0.2"
         enable-background="new    "
         d="m 1129.1985,935.63582 h -119.5679 v 270.48868 h 119.5679 c 11.8893,-0.039 21.518,-9.6673 21.5567,-21.5567 V 957.19254 c -0.039,-11.88936 -9.6674,-21.51807 -21.5567,-21.55672 z"
         id="path838"
         style="stroke-width:0.188521" /><rect
         style="fill:#18763f;fill-opacity:1;stroke-width:0.916066"
         id="rect1667"
         width="257.70404"
         height="257.70404"
         x="895.5777"
         y="935.4884"
         ry="25.141859" /><path
         fill="#ffffff"
         d="m 958.79047,1135.0684 45.34803,-70.2683 -41.54938,-69.88026 h 33.42289 l 22.67399,44.68946 c 2.0935,4.2454 3.5281,7.3972 4.3044,9.4787 h 0.294 c 1.4896,-3.387 3.0577,-6.6759 4.7041,-9.867 l 24.2381,-44.27753 h 30.6828 l -42.6079,69.46863 43.6901,70.6561 h -32.6468 l -26.1905,-49.0524 c -1.2336,-2.087 -2.2805,-4.2792 -3.1281,-6.5504 h -0.388 c -0.7673,2.2251 -1.7852,4.3556 -3.0343,6.3506 l -26.96653,49.2524 z"
         id="path849"
         style="stroke-width:0.188521" /><path
         fill="#33c481"
         d="M 1376.1664,829.79241 H 1209.5571 V 947.3962 h 188.1661 v -96.04707 c 0,-11.90548 -9.6513,-21.55672 -21.5568,-21.55672 z"
         id="path851"
         style="stroke-width:0.188521" /><path
         fill="#107c41"
         d="m 1209.5571,1065 h 188.1661 v 117.6038 h -188.1661 z"
         id="path853"
         style="stroke-width:0.188521" /></g></g></svg>
