<?xml version="1.0" encoding="UTF-8" standalone="no"?>
<!-- Created with Inkscape (http://www.inkscape.org/) -->

<svg
   width="72.462181mm"
   height="59.023422mm"
   viewBox="0 0 72.462182 59.023421"
   version="1.1"
   id="svg8"
   inkscape:version="1.1.1 (c3084ef, 2021-09-22)"
   sodipodi:docname="SPSS.svg"
   xmlns:inkscape="http://www.inkscape.org/namespaces/inkscape"
   xmlns:sodipodi="http://sodipodi.sourceforge.net/DTD/sodipodi-0.dtd"
   xmlns="http://www.w3.org/2000/svg"
   xmlns:svg="http://www.w3.org/2000/svg"
   xmlns:rdf="http://www.w3.org/1999/02/22-rdf-syntax-ns#"
   xmlns:cc="http://creativecommons.org/ns#"
   xmlns:dc="http://purl.org/dc/elements/1.1/">
  <defs
     id="defs2">
    <marker
       inkscape:stockid="Arrow1Lend"
       orient="auto"
       refY="0"
       refX="0"
       id="marker4740"
       style="overflow:visible"
       inkscape:isstock="true">
      <path
         id="path4738"
         d="M 0,0 5,-5 -12.5,0 5,5 Z"
         style="fill:#000000;fill-opacity:1;fill-rule:evenodd;stroke:#000000;stroke-width:1pt;stroke-opacity:1"
         transform="matrix(-0.8,0,0,-0.8,-10,0)"
         inkscape:connector-curvature="0" />
    </marker>
    <marker
       inkscape:isstock="true"
       style="overflow:visible"
       id="marker4598"
       refX="0"
       refY="0"
       orient="auto"
       inkscape:stockid="Arrow1Lstart">
      <path
         transform="matrix(0.8,0,0,0.8,10,0)"
         style="fill:#000000;fill-opacity:1;fill-rule:evenodd;stroke:#000000;stroke-width:1pt;stroke-opacity:1"
         d="M 0,0 5,-5 -12.5,0 5,5 Z"
         id="path4596"
         inkscape:connector-curvature="0" />
    </marker>
    <marker
       inkscape:isstock="true"
       style="overflow:visible"
       id="marker3996"
       refX="0"
       refY="0"
       orient="auto"
       inkscape:stockid="Arrow1Lend">
      <path
         transform="matrix(-0.8,0,0,-0.8,-10,0)"
         style="fill:#000000;fill-opacity:1;fill-rule:evenodd;stroke:#000000;stroke-width:1pt;stroke-opacity:1"
         d="M 0,0 5,-5 -12.5,0 5,5 Z"
         id="path3994"
         inkscape:connector-curvature="0" />
    </marker>
    <marker
       inkscape:stockid="Arrow1Lend"
       orient="auto"
       refY="0"
       refX="0"
       id="marker3194"
       style="overflow:visible"
       inkscape:isstock="true">
      <path
         id="path3192"
         d="M 0,0 5,-5 -12.5,0 5,5 Z"
         style="fill:#000000;fill-opacity:1;fill-rule:evenodd;stroke:#000000;stroke-width:1pt;stroke-opacity:1"
         transform="matrix(-0.8,0,0,-0.8,-10,0)"
         inkscape:connector-curvature="0" />
    </marker>
    <marker
       inkscape:stockid="Arrow1Lstart"
       orient="auto"
       refY="0"
       refX="0"
       id="marker3066"
       style="overflow:visible"
       inkscape:isstock="true">
      <path
         id="path3064"
         d="M 0,0 5,-5 -12.5,0 5,5 Z"
         style="fill:#000000;fill-opacity:1;fill-rule:evenodd;stroke:#000000;stroke-width:1pt;stroke-opacity:1"
         transform="matrix(0.8,0,0,0.8,10,0)"
         inkscape:connector-curvature="0" />
    </marker>
    <marker
       inkscape:stockid="Arrow1Lend"
       orient="auto"
       refY="0"
       refX="0"
       id="Arrow1Lend"
       style="overflow:visible"
       inkscape:isstock="true">
      <path
         id="path847"
         d="M 0,0 5,-5 -12.5,0 5,5 Z"
         style="fill:#000000;fill-opacity:1;fill-rule:evenodd;stroke:#000000;stroke-width:1pt;stroke-opacity:1"
         transform="matrix(-0.8,0,0,-0.8,-10,0)"
         inkscape:connector-curvature="0" />
    </marker>
    <marker
       inkscape:stockid="Arrow1Lstart"
       orient="auto"
       refY="0"
       refX="0"
       id="Arrow1Lstart"
       style="overflow:visible"
       inkscape:isstock="true">
      <path
         id="path844"
         d="M 0,0 5,-5 -12.5,0 5,5 Z"
         style="fill:#000000;fill-opacity:1;fill-rule:evenodd;stroke:#000000;stroke-width:1pt;stroke-opacity:1"
         transform="matrix(0.8,0,0,0.8,10,0)"
         inkscape:connector-curvature="0" />
    </marker>
    <linearGradient
       spreadMethod="pad"
       gradientUnits="userSpaceOnUse"
       y2="593.79999"
       y1="3.6659999"
       x2="590.79999"
       x1="0.7414"
       id="gradientFill-1"
       gradientTransform="scale(1.222,0.8183)">
      <stop
         id="stop1123"
         stop-opacity="1"
         stop-color="rgb(203,206,208)"
         offset="0" />
      <stop
         id="stop1125"
         stop-opacity="1"
         stop-color="rgb(132,131,139)"
         offset="1" />
    </linearGradient>
    <linearGradient
       spreadMethod="pad"
       gradientUnits="userSpaceOnUse"
       y2="553.40002"
       y1="151.3"
       x2="703.09998"
       x1="301.10001"
       id="gradientFill-2"
       gradientTransform="scale(0.9899,1.01)">
      <stop
         id="stop1128"
         stop-opacity="1"
         stop-color="rgb(39,109,195)"
         offset="0" />
      <stop
         id="stop1130"
         stop-opacity="1"
         stop-color="rgb(22,92,170)"
         offset="1" />
    </linearGradient>
  </defs>
  <sodipodi:namedview
     id="base"
     pagecolor="#ffffff"
     bordercolor="#666666"
     borderopacity="1.0"
     inkscape:pageopacity="0.0"
     inkscape:pageshadow="2"
     inkscape:zoom="0.35"
     inkscape:cx="101.42857"
     inkscape:cy="27.142857"
     inkscape:document-units="mm"
     inkscape:current-layer="layer1"
     showgrid="false"
     fit-margin-top="0"
     fit-margin-left="0"
     fit-margin-right="0"
     fit-margin-bottom="0"
     inkscape:window-width="2560"
     inkscape:window-height="1359"
     inkscape:window-x="0"
     inkscape:window-y="25"
     inkscape:window-maximized="1"
     inkscape:snap-grids="false"
     inkscape:snap-to-guides="false"
     inkscape:snap-others="false"
     inkscape:object-nodes="false"
     inkscape:snap-nodes="false"
     inkscape:snap-global="false"
     inkscape:pagecheckerboard="0" />
  <metadata
     id="metadata5">
    <rdf:RDF>
      <cc:Work
         rdf:about="">
        <dc:format>image/svg+xml</dc:format>
        <dc:type
           rdf:resource="http://purl.org/dc/dcmitype/StillImage" />
      </cc:Work>
    </rdf:RDF>
  </metadata>
  <g
     inkscape:label="Layer 1"
     inkscape:groupmode="layer"
     id="layer1"
     transform="translate(59.805249,-134.08352)">
    <g
       id="g896"
       transform="matrix(0.8703,0,0,0.8703,-98.253571,107.06071)"
       style="stroke-width:0.5745;stroke-miterlimit:4;stroke-dasharray:none">
      <path
         style="fill:#516daa;stroke-width:0.5745;stroke-miterlimit:4;stroke-dasharray:none"
         d="M 56.56,98.78 C 53.55,98.37 50.6,96.86 48.78,94.78 47.34,93.15 46.18,90.01 46.84,89.59 47.12,89.41 53.52,89.38 53.96,89.54 54.12,89.61 54.37,89.94 54.51,90.3 54.88,91.16 55.42,91.71 56.31,92.11 57.17,92.5 58.84,92.57 59.79,92.25 61.38,91.72 61.55,89.94 60.09,89.18 59.82,89.04 58.23,88.44 56.53,87.84 54.84,87.24 52.94,86.5 52.31,86.2 50.94,85.53 49.06,83.73 48.37,82.45 45.86,77.76 48.38,72.82 54.06,71.32 55.65,70.89 59.37,70.89 60.94,71.32 62.59,71.76 64.43,72.71 65.38,73.65 65.84,74.09 66.3,74.44 66.4,74.44 66.51,74.44 66.58,73.89 66.58,73.05 66.58,72.01 66.65,71.56 66.86,71.37 67.09,71.12 67.89,71.09 72.81,71.09 78.68,71.09 80.85,71.23 82.37,71.69 83.43,72.01 85.12,73.03 86.16,73.96 86.58,74.32 86.99,74.62 87.08,74.62 87.18,74.62 87.71,74.19 88.26,73.7 90.38,71.72 92.44,71.02 96.04,71.02 99.71,71.02 101.9,71.76 104,73.77 104.7,74.33 105.3,74.79 105.4,74.79 105.5,74.79 105.7,74.56 105.9,74.26 106.5,73.49 108.4,72.15 109.7,71.69 112,70.84 115.5,70.7 118,71.35 121.2,72.2 123.7,74.4 124.5,77.12 124.7,77.68 124.8,78.43 124.8,78.8 L 124.7,79.47 121.1,79.52 117.6,79.55 117.1,78.85 C 116.5,77.86 115.7,77.44 114.6,77.44 112.9,77.44 111.9,78.2 112.2,79.27 112.3,79.92 112.9,80.21 115,80.81 118.4,81.76 121.3,82.71 122.3,83.28 123.6,83.96 124.8,85.25 125.4,86.49 126.3,88.36 126.3,91.25 125.5,93.08 123.9,96.59 119.7,98.8 114.6,98.81 111.6,98.83 109.5,98.09 107.3,96.31 106.8,95.83 106.2,95.43 106.1,95.43 106,95.43 105.4,95.8 104.9,96.24 103,97.76 101.2,98.46 98.26,98.78 92.39,99.4 86.69,95.99 85.35,91.07 84.89,89.4 84.84,89.43 88.82,89.43 90.64,89.43 92.33,89.5 92.56,89.59 92.85,89.7 93.02,89.94 93.11,90.33 93.25,91.05 94.2,91.95 95.16,92.24 96.21,92.55 97.85,92.5 98.61,92.15 100.1,91.46 99.99,89.84 98.49,89.13 98.07,88.94 96.36,88.28 94.68,87.7 91.22,86.47 90.48,86.13 89.23,85.18 88.74,84.79 88.28,84.49 88.22,84.49 88.15,84.49 87.84,84.92 87.52,85.43 86.74,86.64 85.1,88.09 83.78,88.73 82.01,89.59 80.92,89.78 77.78,89.78 76.23,89.78 74.84,89.87 74.69,89.96 74.48,90.1 74.41,90.84 74.34,94.23 L 74.25,98.34 70.53,98.39 66.79,98.43 66.69,98.04 C 66.63,97.81 66.58,97.39 66.58,97.07 66.58,96.34 66.37,96.24 65.82,96.66 63.88,98.2 59.56,99.18 56.56,98.78 Z M 117.4,91.9 C 118.1,91.42 118.2,90.79 117.9,90.07 117.5,89.36 117.2,89.17 112.9,87.65 109,86.24 108.3,85.87 106.8,84.33 105.5,83.06 105.2,82.52 104.6,80.79 L 104.2,79.64 101.7,79.59 99.21,79.54 98.77,78.83 C 98.15,77.86 97.4,77.44 96.25,77.44 94.54,77.44 93.53,78.2 93.82,79.27 93.97,79.92 94.52,80.21 96.69,80.81 99.83,81.69 102.8,82.68 103.8,83.17 105.7,84.16 107.3,86.22 107.6,88.16 107.8,89.33 107.9,89.43 109.2,89.43 110.9,89.43 111.1,89.52 111.6,90.54 111.9,91.23 112.2,91.57 112.8,91.87 114.2,92.64 116.3,92.66 117.4,91.9 Z M 66.55,81.56 66.49,79.64 63.51,79.55 60.53,79.47 60.14,78.78 C 59.65,77.88 58.81,77.46 57.58,77.44 55.96,77.44 54.87,78.35 55.29,79.38 55.55,80.01 56.08,80.26 58.82,81.04 62.22,81.99 64.76,82.85 65.58,83.33 65.98,83.58 66.37,83.72 66.46,83.63 66.53,83.56 66.56,82.62 66.55,81.56 Z M 79.76,83.15 C 81.84,82.16 81.91,79.17 79.9,78.02 79.26,77.67 78.95,77.61 76.95,77.61 74.91,77.61 74.69,77.65 74.52,77.95 74.43,78.14 74.34,79.31 74.34,80.52 74.34,81.74 74.43,82.91 74.52,83.1 74.69,83.4 74.91,83.43 76.92,83.43 78.61,83.43 79.28,83.36 79.76,83.15 Z M 44.25,64.32 C 44.2,64.19 44.18,63.7 44.21,63.22 L 44.27,62.36 H 52.29 60.32 L 60.37,63.05 C 60.41,63.43 60.39,63.93 60.34,64.16 L 60.23,64.56 H 52.28 C 45.7,64.56 44.33,64.53 44.25,64.32 Z M 62.59,64.32 C 62.54,64.19 62.52,63.7 62.56,63.22 L 62.61,62.36 74.04,62.3 C 86.74,62.27 86.44,62.23 84.36,63.4 82.23,64.58 82.33,64.56 72.01,64.56 64.25,64.56 62.66,64.53 62.59,64.32 Z M 90.5,64.28 C 90.34,63.89 90.38,62.75 90.53,62.48 90.66,62.32 91.91,62.27 96.23,62.3 L 101.8,62.36 V 63.42 64.47 L 96.2,64.53 C 91.22,64.56 90.61,64.54 90.5,64.28 Z M 116,64.32 C 116,64.19 116,63.7 116,63.22 L 116.1,62.36 121.5,62.3 C 125.4,62.27 127,62.32 127.2,62.46 127.3,62.57 127.4,62.97 127.4,63.33 127.4,64.65 127.8,64.56 121.7,64.56 117.1,64.56 116.1,64.53 116,64.32 Z M 108.5,63.79 C 108.3,63.45 108.2,62.96 108.2,62.71 108.2,62.32 108.3,62.27 108.9,62.27 109.3,62.27 109.6,62.34 109.7,62.43 109.8,62.66 109.2,64.24 108.9,64.35 108.8,64.39 108.6,64.14 108.5,63.79 Z M 44.3,60.03 C 44.09,59.82 44.17,58.09 44.4,57.91 44.66,57.72 59.86,57.72 60.2,57.93 60.3,58 60.41,58.41 60.41,58.83 60.41,60.28 61.13,60.15 52.3,60.15 47.96,60.15 44.36,60.1 44.3,60.03 Z M 62.59,59.91 C 62.54,59.78 62.52,59.24 62.56,58.72 L 62.61,57.77 75.36,57.72 C 89.51,57.68 88.51,57.6 88.1,58.87 87.64,60.28 88.81,60.15 75.01,60.15 64.75,60.15 62.66,60.12 62.59,59.91 Z M 90.61,59.94 C 90.34,59.68 90.32,58.49 90.57,58.02 90.75,57.7 90.99,57.68 96.09,57.68 99.02,57.68 101.5,57.75 101.6,57.84 101.8,57.93 101.9,58.3 101.8,59.02 V 60.06 L 96.3,60.12 C 92.19,60.15 90.76,60.1 90.61,59.94 Z M 107.1,59.76 C 106.7,59.18 106.4,58.07 106.5,57.86 106.7,57.61 110.9,57.63 111.2,57.88 111.3,58.02 111.3,58.3 111.1,58.9 110.7,60.14 110.6,60.15 108.9,60.15 107.5,60.15 107.3,60.12 107.1,59.76 Z M 116,59.91 C 116,59.78 116,59.24 116,58.72 L 116.1,57.77 121.5,57.72 C 125.4,57.68 127,57.74 127.2,57.88 127.5,58.12 127.5,59.64 127.2,59.94 126.9,60.28 116.2,60.24 116,59.91 Z M 48.88,55.62 C 48.82,55.57 48.76,55.06 48.76,54.49 48.76,53.73 48.83,53.47 49.04,53.38 49.59,53.17 55.21,53.26 55.43,53.49 55.76,53.82 55.71,55.5 55.37,55.64 54.98,55.78 49.03,55.78 48.88,55.62 Z M 67.32,55.53 C 67.04,55.25 67.04,53.77 67.32,53.49 67.57,53.24 73.58,53.19 73.95,53.43 74.11,53.52 74.17,53.89 74.13,54.61 L 74.08,55.66 70.81,55.71 C 68.41,55.74 67.48,55.69 67.32,55.53 Z M 81.34,55.64 C 81.27,55.57 81.22,55.06 81.22,54.49 81.22,53.73 81.29,53.47 81.5,53.38 81.66,53.33 83.16,53.27 84.84,53.27 88.22,53.27 88.35,53.31 88.56,54.4 88.79,55.71 88.93,55.66 85,55.71 83.06,55.73 81.42,55.69 81.34,55.64 Z M 95.19,55.53 C 94.91,55.25 94.91,53.77 95.19,53.49 95.33,53.34 96.32,53.27 98.44,53.27 101.9,53.27 101.9,53.27 101.8,54.72 V 55.66 L 98.6,55.71 C 96.27,55.74 95.35,55.69 95.19,55.53 Z M 105.6,55.53 C 105.3,55.18 105,53.86 105.1,53.56 105.2,53.31 105.7,53.27 108.9,53.27 111.6,53.27 112.6,53.33 112.8,53.5 112.9,53.66 112.8,54 112.6,54.69 L 112.2,55.66 109,55.71 C 106.6,55.74 105.7,55.69 105.6,55.53 Z M 116.2,55.62 C 115.8,55.48 115.9,53.52 116.3,53.38 116.4,53.33 117.8,53.27 119.4,53.27 121.8,53.27 122.3,53.33 122.6,53.56 122.9,53.87 123,55.21 122.6,55.53 122.5,55.67 121.5,55.74 119.4,55.73 117.8,55.73 116.3,55.67 116.2,55.62 Z M 49.06,51.21 C 48.8,51.14 48.76,50.96 48.8,50.05 L 48.85,48.95 H 52.2 55.56 L 55.61,49.89 C 55.69,51.33 55.7,51.33 52.32,51.32 50.7,51.3 49.24,51.26 49.06,51.21 Z M 67.43,51.14 C 67.06,50.93 66.99,49.41 67.32,49.08 67.48,48.92 69.72,48.86 76.33,48.86 H 85.12 L 86,49.76 C 86.9,50.7 87.04,51.05 86.58,51.23 86.09,51.42 67.74,51.33 67.43,51.14 Z M 95.3,51.14 C 94.91,50.91 94.86,49.36 95.23,49.06 95.39,48.92 96.44,48.86 98.61,48.9 L 101.8,48.95 V 49.92 C 101.9,50.68 101.8,50.93 101.6,51.1 101.2,51.39 95.76,51.42 95.3,51.14 Z M 104.3,51.1 C 103.9,50.88 103.3,49.57 103.5,49.13 103.6,48.9 104.4,48.86 108.9,48.86 114.8,48.86 114.6,48.81 114.2,50.06 113.9,51.28 114.1,51.21 109.2,51.26 106,51.3 104.6,51.26 104.3,51.1 Z M 116.3,51.1 C 116,50.93 116,50.68 116,49.92 L 116.1,48.95 119.2,48.9 C 121.4,48.86 122.4,48.92 122.6,49.06 122.9,49.34 122.9,50.72 122.6,51.05 122.3,51.28 121.8,51.33 119.4,51.33 117.4,51.33 116.5,51.26 116.3,51.1 Z M 48.84,46.5 C 48.79,46.38 48.77,45.88 48.8,45.41 L 48.85,44.54 H 52.2 55.56 V 45.6 46.66 L 52.25,46.71 C 49.54,46.75 48.92,46.71 48.84,46.5 Z M 67.18,46.34 C 67.13,46.11 67.11,45.62 67.14,45.23 L 67.2,44.54 77.04,44.5 C 84.91,44.46 86.87,44.5 86.87,44.68 86.87,44.8 86.5,45.32 86.05,45.83 L 85.24,46.75 H 76.26 67.29 Z M 95.1,46.62 C 94.94,46.48 94.94,45.11 95.09,44.73 95.17,44.49 95.91,44.46 101.5,44.46 104.9,44.46 107.9,44.52 108,44.59 108.1,44.66 108.3,45.03 108.5,45.41 108.8,46.2 109,46.11 109.4,45.11 L 109.6,44.54 116.1,44.5 C 121.1,44.46 122.6,44.5 122.7,44.67 122.9,45.02 122.9,46.31 122.6,46.54 122.5,46.68 121.5,46.75 119.3,46.75 116.5,46.75 116.1,46.71 116,46.45 115.8,46.15 115.8,46.15 115.5,46.45 115.2,46.71 114.6,46.75 108.9,46.75 103.5,46.75 102.6,46.71 102.4,46.48 102.2,46.24 102.1,46.24 101.9,46.48 101.6,46.7 101,46.75 98.38,46.75 96.64,46.75 95.16,46.7 95.1,46.62 Z M 67.36,42.29 C 67.07,42.13 67,40.31 67.27,40.14 67.36,40.09 68.87,40.04 70.66,40.04 73.11,40.03 73.9,40.09 74.01,40.26 74.2,40.54 74.2,41.83 74.02,42.1 73.88,42.34 67.76,42.51 67.36,42.29 Z M 48.8,41.24 48.85,40.13 H 52.2 55.56 V 41.19 42.25 L 52.15,42.3 48.75,42.35 Z M 81.12,42.1 C 81.06,41.96 81.04,41.47 81.08,40.99 L 81.13,40.13 H 84.75 88.36 L 88.42,40.57 C 88.45,40.81 88.4,41.3 88.29,41.67 L 88.08,42.34 H 84.64 C 81.89,42.34 81.19,42.29 81.12,42.1 Z M 95.1,42.22 C 94.86,41.99 94.98,40.25 95.23,40.1 95.37,40.02 97.96,40 101,40.05 L 106.5,40.13 106.8,40.93 C 107.4,42.46 107.9,42.34 101.2,42.34 97.91,42.34 95.16,42.29 95.1,42.22 Z M 110.6,41.85 C 110.6,41.59 110.8,41.07 110.9,40.71 L 111.2,40.05 H 116.9 C 123.3,40.05 122.8,39.96 122.8,41.26 122.8,41.62 122.8,42.01 122.6,42.13 122.5,42.28 120.9,42.34 116.4,42.34 H 110.5 Z M 44.39,37.72 C 44.12,37.44 44.12,35.95 44.39,35.67 44.7,35.37 59.9,35.37 60.2,35.67 60.48,35.95 60.48,37.44 60.2,37.72 59.9,38.02 44.7,38.02 44.39,37.72 Z M 62.74,37.81 C 62.4,37.67 62.45,35.7 62.81,35.57 63.3,35.38 87.04,35.44 87.39,35.64 87.57,35.73 87.85,36.17 88.01,36.6 88.56,38.03 89.49,37.93 75.42,37.92 68.57,37.91 62.86,37.86 62.74,37.81 Z M 90.57,37.59 C 90.32,37.12 90.34,36.12 90.62,35.76 90.82,35.48 91.42,35.46 97.8,35.5 L 104.8,35.55 105.2,36.34 C 105.4,36.78 105.5,37.29 105.5,37.49 105.5,37.83 105.3,37.84 98.12,37.89 90.99,37.93 90.76,37.92 90.57,37.59 Z M 112.3,37.76 C 112.1,37.62 112,37.5 112.2,36.92 112.4,36.56 112.6,36.08 112.7,35.86 L 113,35.46 H 120 C 125.2,35.46 127.1,35.52 127.2,35.67 127.5,35.93 127.5,37.12 127.3,37.59 127.1,37.92 126.8,37.93 119.8,37.93 115.6,37.93 112.4,37.85 112.3,37.76 Z M 44.42,33.26 C 44.23,33.12 44.17,32.81 44.21,32.1 L 44.27,31.14 H 52.29 60.32 L 60.37,32.16 C 60.42,33.12 60.41,33.18 59.93,33.35 59.26,33.62 44.79,33.53 44.42,33.26 Z M 62.72,33.28 C 62.59,33.13 62.52,32.63 62.56,32.08 L 62.61,31.14 71.68,31.09 C 81.57,31.04 81.86,31.07 83.81,32.05 84.96,32.62 85.45,33.12 85.12,33.33 85,33.41 79.95,33.49 73.9,33.51 64.46,33.53 62.89,33.5 62.72,33.28 Z M 90.68,33.26 C 90.38,32.95 90.29,31.67 90.53,31.27 90.66,31.1 92.07,31.06 97.03,31.09 L 103.4,31.14 103.7,32.14 C 103.9,32.7 104,33.21 103.9,33.29 103.8,33.37 100.9,33.46 97.38,33.49 91.61,33.54 90.94,33.52 90.68,33.26 Z M 113.9,33.35 C 113.6,33.21 113.6,33.09 113.8,32.52 114,32.15 114.2,31.67 114.3,31.45 L 114.6,31.05 H 120.8 C 125.4,31.05 127.1,31.11 127.2,31.26 127.5,31.51 127.5,32.79 127.3,33.17 127.1,33.39 126.1,33.44 120.6,33.47 116.8,33.5 114,33.45 113.9,33.35 Z"
         id="path900"
         inkscape:connector-curvature="0" />
      <path
         style="fill:#dd104e;stroke-width:0.5745;stroke-miterlimit:4;stroke-dasharray:none"
         d="M 56.56,98.78 C 53.55,98.37 50.6,96.86 48.78,94.78 47.34,93.15 46.18,90.01 46.84,89.59 47.12,89.41 53.52,89.38 53.96,89.54 54.12,89.61 54.37,89.94 54.51,90.3 54.88,91.16 55.42,91.71 56.31,92.11 57.17,92.5 58.84,92.57 59.79,92.25 61.38,91.72 61.55,89.94 60.09,89.18 59.82,89.04 58.23,88.44 56.53,87.84 54.84,87.24 52.94,86.5 52.31,86.2 50.94,85.53 49.06,83.73 48.37,82.45 45.86,77.76 48.38,72.82 54.06,71.32 55.65,70.89 59.37,70.89 60.94,71.32 62.59,71.76 64.43,72.71 65.38,73.65 65.84,74.09 66.3,74.44 66.4,74.44 66.51,74.44 66.58,73.89 66.58,73.05 66.58,72.01 66.65,71.56 66.86,71.37 67.09,71.12 67.89,71.09 72.81,71.09 78.68,71.09 80.85,71.23 82.37,71.69 83.43,72.01 85.12,73.03 86.16,73.96 86.58,74.32 86.99,74.62 87.08,74.62 87.18,74.62 87.71,74.19 88.26,73.7 90.38,71.72 92.44,71.02 96.04,71.02 99.71,71.02 101.9,71.76 104,73.77 104.7,74.33 105.3,74.79 105.4,74.79 105.5,74.79 105.7,74.56 105.9,74.26 106.5,73.49 108.4,72.15 109.7,71.69 112,70.84 115.5,70.7 118,71.35 121.2,72.2 123.7,74.4 124.5,77.12 124.7,77.68 124.8,78.43 124.8,78.8 L 124.7,79.47 121.1,79.52 117.6,79.55 117.1,78.85 C 116.5,77.86 115.7,77.44 114.6,77.44 112.9,77.44 111.9,78.2 112.2,79.27 112.3,79.92 112.9,80.21 115,80.81 118.4,81.76 121.3,82.71 122.3,83.28 123.6,83.96 124.8,85.25 125.4,86.49 126.3,88.36 126.3,91.25 125.5,93.08 123.9,96.59 119.7,98.8 114.6,98.81 111.6,98.83 109.5,98.09 107.3,96.31 106.8,95.83 106.2,95.43 106.1,95.43 106,95.43 105.4,95.8 104.9,96.24 103,97.76 101.2,98.46 98.26,98.78 92.39,99.4 86.69,95.99 85.35,91.07 84.89,89.4 84.84,89.43 88.82,89.43 90.64,89.43 92.33,89.5 92.56,89.59 92.85,89.7 93.02,89.94 93.11,90.33 93.25,91.05 94.2,91.95 95.16,92.24 96.21,92.55 97.85,92.5 98.61,92.15 100.1,91.46 99.99,89.84 98.49,89.13 98.07,88.94 96.36,88.28 94.68,87.7 91.22,86.47 90.48,86.13 89.23,85.18 88.74,84.79 88.28,84.49 88.22,84.49 88.15,84.49 87.84,84.92 87.52,85.43 86.74,86.64 85.1,88.09 83.78,88.73 82.01,89.59 80.92,89.78 77.78,89.78 76.23,89.78 74.84,89.87 74.69,89.96 74.48,90.1 74.41,90.84 74.34,94.23 L 74.25,98.34 70.53,98.39 66.79,98.43 66.69,98.04 C 66.63,97.81 66.58,97.39 66.58,97.07 66.58,96.34 66.37,96.24 65.82,96.66 63.88,98.2 59.56,99.18 56.56,98.78 Z M 117.4,91.9 C 118.1,91.42 118.2,90.79 117.9,90.07 117.5,89.36 117.2,89.17 112.9,87.65 109,86.24 108.3,85.87 106.8,84.33 105.5,83.06 105.2,82.52 104.6,80.79 L 104.2,79.64 101.7,79.59 99.21,79.54 98.77,78.83 C 98.15,77.86 97.4,77.44 96.25,77.44 94.54,77.44 93.53,78.2 93.82,79.27 93.97,79.92 94.52,80.21 96.69,80.81 99.83,81.69 102.8,82.68 103.8,83.17 105.7,84.16 107.3,86.22 107.6,88.16 107.8,89.33 107.9,89.43 109.2,89.43 110.9,89.43 111.1,89.52 111.6,90.54 111.9,91.23 112.2,91.57 112.8,91.87 114.2,92.64 116.3,92.66 117.4,91.9 Z M 66.55,81.56 66.49,79.64 63.51,79.55 60.53,79.47 60.14,78.78 C 59.65,77.88 58.81,77.46 57.58,77.44 55.96,77.44 54.87,78.35 55.29,79.38 55.55,80.01 56.08,80.26 58.82,81.04 62.22,81.99 64.76,82.85 65.58,83.33 65.98,83.58 66.37,83.72 66.46,83.63 66.53,83.56 66.56,82.62 66.55,81.56 Z M 79.76,83.15 C 81.84,82.16 81.91,79.17 79.9,78.02 79.26,77.67 78.95,77.61 76.95,77.61 74.91,77.61 74.69,77.65 74.52,77.95 74.43,78.14 74.34,79.31 74.34,80.52 74.34,81.74 74.43,82.91 74.52,83.1 74.69,83.4 74.91,83.43 76.92,83.43 78.61,83.43 79.28,83.36 79.76,83.15 Z"
         id="path898"
         inkscape:connector-curvature="0" />
    </g>
  </g>
</svg>
